<svg version="1.1" xmlns="http://www.w3.org/2000/svg" xmlns:xlink="http://www.w3.org/1999/xlink" width="1180" height="1332"><defs/><g><g transform="translate(-30,2) scale(1,1)"><path fill="#C0C0C0" stroke="none" d="M 47 25 L 1196 25 L 1196 1326 L 47 1326" opacity="0.2"/></g><g transform="translate(-30,2) scale(1,1)"><path fill="#C0C0C0" stroke="none" d="M 47 25 L 57 15 L 1206 15 L 1196 25" opacity="0.2"/></g><g transform="translate(-30,2) scale(1,1)"><path fill="#C0C0C0" stroke="none" d="M 1206 15 L 1196 25 L 1196 1326 L 1206 1316" opacity="0.2"/></g><g transform="translate(-30,2) scale(1,1)"><path fill="#ffffff" stroke="none" d="M 40 18 L 1189 18 L 1189 1319 L 40 1319"/></g><g transform="translate(-30,2) scale(1,1)"><path fill="#ffffff" stroke="none" d="M 40 18 L 50 8 L 1199 8 L 1189 18"/></g><g transform="translate(-30,2) scale(1,1)"><path fill="#ffffff" stroke="none" d="M 1199 8 L 1189 18 L 1189 1319 L 1199 1309"/></g><g transform="translate(-30,2) scale(1,1)"><path fill="none" stroke="#000000" d="M 40 18 L 1189 18 L 1189 1319 L 40 1319 L 40 18" stroke-miterlimit="10"/></g><g transform="translate(-30,2) scale(1,1)"><path fill="none" stroke="#000000" d="M 40 18 L 50 8 L 1199 8 L 1189 18 L 40 18" stroke-miterlimit="10"/></g><g transform="translate(-30,2) scale(1,1)"><path fill="none" stroke="#000000" d="M 1199 8 L 1189 18 L 1189 1319 L 1199 1309 L 1199 8" stroke-miterlimit="10"/></g><g transform="translate(-30,2) scale(1,1)"><g><path fill="none" stroke="none"/><text fill="#000000" stroke="none" font-family="Arial" font-size="13px" font-style="normal" font-weight="bold" text-decoration="none" x="595.490478515625" y="37.5">xampp</text></g></g><g transform="translate(-30,2) scale(1,1)"><path fill="#C0C0C0" stroke="none" d="M 55 73 L 1156 73 L 1156 1318 L 55 1318" opacity="0.2"/></g><g transform="translate(-30,2) scale(1,1)"><path fill="#C0C0C0" stroke="none" d="M 55 73 L 65 63 L 1166 63 L 1156 73" opacity="0.2"/></g><g transform="translate(-30,2) scale(1,1)"><path fill="#C0C0C0" stroke="none" d="M 1166 63 L 1156 73 L 1156 1318 L 1166 1308" opacity="0.2"/></g><g transform="translate(-30,2) scale(1,1)"><path fill="#ffffff" stroke="none" d="M 48 66 L 1149 66 L 1149 1311 L 48 1311"/></g><g transform="translate(-30,2) scale(1,1)"><path fill="#ffffff" stroke="none" d="M 48 66 L 58 56 L 1159 56 L 1149 66"/></g><g transform="translate(-30,2) scale(1,1)"><path fill="#ffffff" stroke="none" d="M 1159 56 L 1149 66 L 1149 1311 L 1159 1301"/></g><g transform="translate(-30,2) scale(1,1)"><path fill="none" stroke="#000000" d="M 48 66 L 1149 66 L 1149 1311 L 48 1311 L 48 66" stroke-miterlimit="10"/></g><g transform="translate(-30,2) scale(1,1)"><path fill="none" stroke="#000000" d="M 48 66 L 58 56 L 1159 56 L 1149 66 L 48 66" stroke-miterlimit="10"/></g><g transform="translate(-30,2) scale(1,1)"><path fill="none" stroke="#000000" d="M 1159 56 L 1149 66 L 1149 1311 L 1159 1301 L 1159 56" stroke-miterlimit="10"/></g><g transform="translate(-30,2) scale(1,1)"><g><path fill="none" stroke="none"/><text fill="#000000" stroke="none" font-family="Arial" font-size="13px" font-style="normal" font-weight="normal" text-decoration="none" x="565.030517578125" y="83.5">«find-code»</text></g></g><g transform="translate(-30,2) scale(1,1)"><g><path fill="none" stroke="none"/><text fill="#000000" stroke="none" font-family="Arial" font-size="13px" font-style="normal" font-weight="bold" text-decoration="none" x="599" y="98.5"></text></g></g><g transform="translate(-30,2) scale(1,1)"><path fill="#C0C0C0" stroke="none" d="M 263 257 L 310.72998046875 257 L 310.72998046875 290 L 263 290" opacity="0.2"/></g><g transform="translate(-30,2) scale(1,1)"><path fill="#C0C0C0" stroke="none" d="M 263 257 L 273 247 L 320.72998046875 247 L 310.72998046875 257" opacity="0.2"/></g><g transform="translate(-30,2) scale(1,1)"><path fill="#C0C0C0" stroke="none" d="M 320.72998046875 247 L 310.72998046875 257 L 310.72998046875 290 L 320.72998046875 280" opacity="0.2"/></g><g transform="translate(-30,2) scale(1,1)"><path fill="#ffffff" stroke="none" d="M 256 250 L 303.72998046875 250 L 303.72998046875 283 L 256 283"/></g><g transform="translate(-30,2) scale(1,1)"><path fill="#ffffff" stroke="none" d="M 256 250 L 266 240 L 313.72998046875 240 L 303.72998046875 250"/></g><g transform="translate(-30,2) scale(1,1)"><path fill="#ffffff" stroke="none" d="M 313.72998046875 240 L 303.72998046875 250 L 303.72998046875 283 L 313.72998046875 273"/></g><g transform="translate(-30,2) scale(1,1)"><path fill="none" stroke="#000000" d="M 256 250 L 303.72998046875 250 L 303.72998046875 283 L 256 283 L 256 250" stroke-miterlimit="10"/></g><g transform="translate(-30,2) scale(1,1)"><path fill="none" stroke="#000000" d="M 256 250 L 266 240 L 313.72998046875 240 L 303.72998046875 250 L 256 250" stroke-miterlimit="10"/></g><g transform="translate(-30,2) scale(1,1)"><path fill="none" stroke="#000000" d="M 313.72998046875 240 L 303.72998046875 250 L 303.72998046875 283 L 313.72998046875 273 L 313.72998046875 240" stroke-miterlimit="10"/></g><g transform="translate(-30,2) scale(1,1)"><g><path fill="none" stroke="none"/><text fill="#000000" stroke="none" font-family="Arial" font-size="13px" font-style="normal" font-weight="bold" text-decoration="none" x="271.69091796875" y="269.5">api</text></g></g><g transform="translate(-30,2) scale(1,1)"><path fill="#C0C0C0" stroke="none" d="M 271 713 L 318.72998046875 713 L 318.72998046875 746 L 271 746" opacity="0.2"/></g><g transform="translate(-30,2) scale(1,1)"><path fill="#C0C0C0" stroke="none" d="M 271 713 L 281 703 L 328.72998046875 703 L 318.72998046875 713" opacity="0.2"/></g><g transform="translate(-30,2) scale(1,1)"><path fill="#C0C0C0" stroke="none" d="M 328.72998046875 703 L 318.72998046875 713 L 318.72998046875 746 L 328.72998046875 736" opacity="0.2"/></g><g transform="translate(-30,2) scale(1,1)"><path fill="#ffffff" stroke="none" d="M 264 706 L 311.72998046875 706 L 311.72998046875 739 L 264 739"/></g><g transform="translate(-30,2) scale(1,1)"><path fill="#ffffff" stroke="none" d="M 264 706 L 274 696 L 321.72998046875 696 L 311.72998046875 706"/></g><g transform="translate(-30,2) scale(1,1)"><path fill="#ffffff" stroke="none" d="M 321.72998046875 696 L 311.72998046875 706 L 311.72998046875 739 L 321.72998046875 729"/></g><g transform="translate(-30,2) scale(1,1)"><path fill="none" stroke="#000000" d="M 264 706 L 311.72998046875 706 L 311.72998046875 739 L 264 739 L 264 706" stroke-miterlimit="10"/></g><g transform="translate(-30,2) scale(1,1)"><path fill="none" stroke="#000000" d="M 264 706 L 274 696 L 321.72998046875 696 L 311.72998046875 706 L 264 706" stroke-miterlimit="10"/></g><g transform="translate(-30,2) scale(1,1)"><path fill="none" stroke="#000000" d="M 321.72998046875 696 L 311.72998046875 706 L 311.72998046875 739 L 321.72998046875 729 L 321.72998046875 696" stroke-miterlimit="10"/></g><g transform="translate(-30,2) scale(1,1)"><g><path fill="none" stroke="none"/><text fill="#000000" stroke="none" font-family="Arial" font-size="13px" font-style="normal" font-weight="bold" text-decoration="none" x="281.86181640625" y="725.5">lib</text></g></g><g transform="translate(-30,2) scale(1,1)"><path fill="#C0C0C0" stroke="none" d="M 263 865 L 310.72998046875 865 L 310.72998046875 898 L 263 898" opacity="0.2"/></g><g transform="translate(-30,2) scale(1,1)"><path fill="#C0C0C0" stroke="none" d="M 263 865 L 273 855 L 320.72998046875 855 L 310.72998046875 865" opacity="0.2"/></g><g transform="translate(-30,2) scale(1,1)"><path fill="#C0C0C0" stroke="none" d="M 320.72998046875 855 L 310.72998046875 865 L 310.72998046875 898 L 320.72998046875 888" opacity="0.2"/></g><g transform="translate(-30,2) scale(1,1)"><path fill="#ffffff" stroke="none" d="M 256 858 L 303.72998046875 858 L 303.72998046875 891 L 256 891"/></g><g transform="translate(-30,2) scale(1,1)"><path fill="#ffffff" stroke="none" d="M 256 858 L 266 848 L 313.72998046875 848 L 303.72998046875 858"/></g><g transform="translate(-30,2) scale(1,1)"><path fill="#ffffff" stroke="none" d="M 313.72998046875 848 L 303.72998046875 858 L 303.72998046875 891 L 313.72998046875 881"/></g><g transform="translate(-30,2) scale(1,1)"><path fill="none" stroke="#000000" d="M 256 858 L 303.72998046875 858 L 303.72998046875 891 L 256 891 L 256 858" stroke-miterlimit="10"/></g><g transform="translate(-30,2) scale(1,1)"><path fill="none" stroke="#000000" d="M 256 858 L 266 848 L 313.72998046875 848 L 303.72998046875 858 L 256 858" stroke-miterlimit="10"/></g><g transform="translate(-30,2) scale(1,1)"><path fill="none" stroke="#000000" d="M 313.72998046875 848 L 303.72998046875 858 L 303.72998046875 891 L 313.72998046875 881 L 313.72998046875 848" stroke-miterlimit="10"/></g><g transform="translate(-30,2) scale(1,1)"><g><path fill="none" stroke="none"/><text fill="#000000" stroke="none" font-family="Arial" font-size="13px" font-style="normal" font-weight="bold" text-decoration="none" x="263.3818359375" y="877.5">public</text></g></g><g transform="translate(-30,2) scale(1,1)"><path fill="#C0C0C0" stroke="none" d="M 231 1001 L 996 1001 L 996 1198 L 231 1198" opacity="0.2"/></g><g transform="translate(-30,2) scale(1,1)"><path fill="#C0C0C0" stroke="none" d="M 231 1001 L 241 991 L 1006 991 L 996 1001" opacity="0.2"/></g><g transform="translate(-30,2) scale(1,1)"><path fill="#C0C0C0" stroke="none" d="M 1006 991 L 996 1001 L 996 1198 L 1006 1188" opacity="0.2"/></g><g transform="translate(-30,2) scale(1,1)"><path fill="#ffffff" stroke="none" d="M 224 994 L 989 994 L 989 1191 L 224 1191"/></g><g transform="translate(-30,2) scale(1,1)"><path fill="#ffffff" stroke="none" d="M 224 994 L 234 984 L 999 984 L 989 994"/></g><g transform="translate(-30,2) scale(1,1)"><path fill="#ffffff" stroke="none" d="M 999 984 L 989 994 L 989 1191 L 999 1181"/></g><g transform="translate(-30,2) scale(1,1)"><path fill="none" stroke="#000000" d="M 224 994 L 989 994 L 989 1191 L 224 1191 L 224 994" stroke-miterlimit="10"/></g><g transform="translate(-30,2) scale(1,1)"><path fill="none" stroke="#000000" d="M 224 994 L 234 984 L 999 984 L 989 994 L 224 994" stroke-miterlimit="10"/></g><g transform="translate(-30,2) scale(1,1)"><path fill="none" stroke="#000000" d="M 999 984 L 989 994 L 989 1191 L 999 1181 L 999 984" stroke-miterlimit="10"/></g><g transform="translate(-30,2) scale(1,1)"><g><path fill="none" stroke="none"/><text fill="#000000" stroke="none" font-family="Arial" font-size="13px" font-style="normal" font-weight="bold" text-decoration="none" x="587.12548828125" y="1013.5">vendor</text></g></g><g transform="translate(-30,2) scale(1,1)"><path fill="#C0C0C0" stroke="none" d="M 415 257 L 482.95361328125 257 L 482.95361328125 290 L 415 290" opacity="0.2"/></g><g transform="translate(-30,2) scale(1,1)"><path fill="#C0C0C0" stroke="none" d="M 415 257 L 425 247 L 492.95361328125 247 L 482.95361328125 257" opacity="0.2"/></g><g transform="translate(-30,2) scale(1,1)"><path fill="#C0C0C0" stroke="none" d="M 492.95361328125 247 L 482.95361328125 257 L 482.95361328125 290 L 492.95361328125 280" opacity="0.2"/></g><g transform="translate(-30,2) scale(1,1)"><path fill="#ffffff" stroke="none" d="M 408 250 L 475.95361328125 250 L 475.95361328125 283 L 408 283"/></g><g transform="translate(-30,2) scale(1,1)"><path fill="#ffffff" stroke="none" d="M 408 250 L 418 240 L 485.95361328125 240 L 475.95361328125 250"/></g><g transform="translate(-30,2) scale(1,1)"><path fill="#ffffff" stroke="none" d="M 485.95361328125 240 L 475.95361328125 250 L 475.95361328125 283 L 485.95361328125 273"/></g><g transform="translate(-30,2) scale(1,1)"><path fill="none" stroke="#000000" d="M 408 250 L 475.95361328125 250 L 475.95361328125 283 L 408 283 L 408 250" stroke-miterlimit="10"/></g><g transform="translate(-30,2) scale(1,1)"><path fill="none" stroke="#000000" d="M 408 250 L 418 240 L 485.95361328125 240 L 475.95361328125 250 L 408 250" stroke-miterlimit="10"/></g><g transform="translate(-30,2) scale(1,1)"><path fill="none" stroke="#000000" d="M 485.95361328125 240 L 475.95361328125 250 L 475.95361328125 283 L 485.95361328125 273 L 485.95361328125 240" stroke-miterlimit="10"/></g><g transform="translate(-30,2) scale(1,1)"><g><path fill="none" stroke="none"/><text fill="#000000" stroke="none" font-family="Arial" font-size="13px" font-style="normal" font-weight="bold" text-decoration="none" x="415.74365234375" y="269.5">controller</text></g></g><g transform="translate(-30,2) scale(1,1)"><path fill="#C0C0C0" stroke="none" d="M 607 257 L 654.72998046875 257 L 654.72998046875 290 L 607 290" opacity="0.2"/></g><g transform="translate(-30,2) scale(1,1)"><path fill="#C0C0C0" stroke="none" d="M 607 257 L 617 247 L 664.72998046875 247 L 654.72998046875 257" opacity="0.2"/></g><g transform="translate(-30,2) scale(1,1)"><path fill="#C0C0C0" stroke="none" d="M 664.72998046875 247 L 654.72998046875 257 L 654.72998046875 290 L 664.72998046875 280" opacity="0.2"/></g><g transform="translate(-30,2) scale(1,1)"><path fill="#ffffff" stroke="none" d="M 600 250 L 647.72998046875 250 L 647.72998046875 283 L 600 283"/></g><g transform="translate(-30,2) scale(1,1)"><path fill="#ffffff" stroke="none" d="M 600 250 L 610 240 L 657.72998046875 240 L 647.72998046875 250"/></g><g transform="translate(-30,2) scale(1,1)"><path fill="#ffffff" stroke="none" d="M 657.72998046875 240 L 647.72998046875 250 L 647.72998046875 283 L 657.72998046875 273"/></g><g transform="translate(-30,2) scale(1,1)"><path fill="none" stroke="#000000" d="M 600 250 L 647.72998046875 250 L 647.72998046875 283 L 600 283 L 600 250" stroke-miterlimit="10"/></g><g transform="translate(-30,2) scale(1,1)"><path fill="none" stroke="#000000" d="M 600 250 L 610 240 L 657.72998046875 240 L 647.72998046875 250 L 600 250" stroke-miterlimit="10"/></g><g transform="translate(-30,2) scale(1,1)"><path fill="none" stroke="#000000" d="M 657.72998046875 240 L 647.72998046875 250 L 647.72998046875 283 L 657.72998046875 273 L 657.72998046875 240" stroke-miterlimit="10"/></g><g transform="translate(-30,2) scale(1,1)"><g><path fill="none" stroke="none"/><text fill="#000000" stroke="none" font-family="Arial" font-size="13px" font-style="normal" font-weight="bold" text-decoration="none" x="606.661376953125" y="269.5">model</text></g></g><g transform="translate(-30,2) scale(1,1)"><path fill="#C0C0C0" stroke="none" d="M 775 257 L 822.72998046875 257 L 822.72998046875 290 L 775 290" opacity="0.2"/></g><g transform="translate(-30,2) scale(1,1)"><path fill="#C0C0C0" stroke="none" d="M 775 257 L 785 247 L 832.72998046875 247 L 822.72998046875 257" opacity="0.2"/></g><g transform="translate(-30,2) scale(1,1)"><path fill="#C0C0C0" stroke="none" d="M 832.72998046875 247 L 822.72998046875 257 L 822.72998046875 290 L 832.72998046875 280" opacity="0.2"/></g><g transform="translate(-30,2) scale(1,1)"><path fill="#ffffff" stroke="none" d="M 768 250 L 815.72998046875 250 L 815.72998046875 283 L 768 283"/></g><g transform="translate(-30,2) scale(1,1)"><path fill="#ffffff" stroke="none" d="M 768 250 L 778 240 L 825.72998046875 240 L 815.72998046875 250"/></g><g transform="translate(-30,2) scale(1,1)"><path fill="#ffffff" stroke="none" d="M 825.72998046875 240 L 815.72998046875 250 L 815.72998046875 283 L 825.72998046875 273"/></g><g transform="translate(-30,2) scale(1,1)"><path fill="none" stroke="#000000" d="M 768 250 L 815.72998046875 250 L 815.72998046875 283 L 768 283 L 768 250" stroke-miterlimit="10"/></g><g transform="translate(-30,2) scale(1,1)"><path fill="none" stroke="#000000" d="M 768 250 L 778 240 L 825.72998046875 240 L 815.72998046875 250 L 768 250" stroke-miterlimit="10"/></g><g transform="translate(-30,2) scale(1,1)"><path fill="none" stroke="#000000" d="M 825.72998046875 240 L 815.72998046875 250 L 815.72998046875 283 L 825.72998046875 273 L 825.72998046875 240" stroke-miterlimit="10"/></g><g transform="translate(-30,2) scale(1,1)"><g><path fill="none" stroke="none"/><text fill="#000000" stroke="none" font-family="Arial" font-size="13px" font-style="normal" font-weight="bold" text-decoration="none" x="779.36181640625" y="269.5">view</text></g></g><g transform="translate(-30,2) scale(1,1)"><path fill="none" stroke="#000000" d="M 797 240 L 797 144 L 295 144 L 295 240" stroke-miterlimit="10" stroke-dasharray="3"/></g><g transform="translate(-30,2) scale(1,1)"><path fill="none" stroke="#000000" d="M 290.790482243984 229.83732514237585 L 295 240 L 299.209517756016 229.83732514237585" stroke-miterlimit="10"/></g><g transform="translate(-30,2) scale(1,1)"><g><path fill="none" stroke="none"/><text fill="#000000" stroke="none" font-family="Arial" font-size="13px" font-style="normal" font-weight="normal" text-decoration="none" x="686.5" y="163.5">«deploy»</text></g></g><g transform="translate(-30,2) scale(1,1)"><path fill="#C0C0C0" stroke="none" d="M 431.054052734375 351 L 458.494052734375 351 L 470.25405273437497 362.76 L 470.25405273437497 400 L 431.054052734375 400" opacity="0.2"/></g><g transform="translate(-30,2) scale(1,1)"><path fill="#ffffff" stroke="none" d="M 424.054052734375 344 L 451.49405273437503 344 L 463.254052734375 355.76 L 463.254052734375 393 L 424.054052734375 393"/></g><g transform="translate(-30,2) scale(1,1)"><path fill="none" stroke="#000000" d="M 424.054052734375 344 L 451.49405273437503 344 L 463.254052734375 355.76 L 463.254052734375 393 L 424.054052734375 393 L 424.054052734375 344" stroke-miterlimit="10"/></g><g transform="translate(-30,2) scale(1,1)"><path fill="none" stroke="#000000" d="M 451.49405273437503 344 L 451.49405273437503 355.76 L 463.254052734375 355.76 L 451.49405273437503 344" stroke-miterlimit="10"/></g><g transform="translate(-30,2) scale(1,1)"><g><path fill="none" stroke="none"/><text fill="#000000" stroke="none" font-family="Arial" font-size="13px" font-style="normal" font-weight="bold" text-decoration="none" x="377.530517578125" y="412.5">PackageController.php</text></g></g><g transform="translate(-30,2) scale(1,1)"><path fill="#C0C0C0" stroke="none" d="M 610.77451171875 351 L 638.21451171875 351 L 649.97451171875 362.76 L 649.97451171875 400 L 610.77451171875 400" opacity="0.2"/></g><g transform="translate(-30,2) scale(1,1)"><path fill="#ffffff" stroke="none" d="M 603.77451171875 344 L 631.21451171875 344 L 642.97451171875 355.76 L 642.97451171875 393 L 603.77451171875 393"/></g><g transform="translate(-30,2) scale(1,1)"><path fill="none" stroke="#000000" d="M 603.77451171875 344 L 631.21451171875 344 L 642.97451171875 355.76 L 642.97451171875 393 L 603.77451171875 393 L 603.77451171875 344" stroke-miterlimit="10"/></g><g transform="translate(-30,2) scale(1,1)"><path fill="none" stroke="#000000" d="M 631.21451171875 344 L 631.21451171875 355.76 L 642.97451171875 355.76 L 631.21451171875 344" stroke-miterlimit="10"/></g><g transform="translate(-30,2) scale(1,1)"><g><path fill="none" stroke="none"/><text fill="#000000" stroke="none" font-family="Arial" font-size="13px" font-style="normal" font-weight="bold" text-decoration="none" x="567.724609375" y="412.5">PackageModel.php</text></g></g><g transform="translate(-30,2) scale(1,1)"><path fill="#C0C0C0" stroke="none" d="M 782.810400390625 351 L 810.250400390625 351 L 822.010400390625 362.76 L 822.010400390625 400 L 782.810400390625 400" opacity="0.2"/></g><g transform="translate(-30,2) scale(1,1)"><path fill="#ffffff" stroke="none" d="M 775.810400390625 344 L 803.250400390625 344 L 815.010400390625 355.76 L 815.010400390625 393 L 775.810400390625 393"/></g><g transform="translate(-30,2) scale(1,1)"><path fill="none" stroke="#000000" d="M 775.810400390625 344 L 803.250400390625 344 L 815.010400390625 355.76 L 815.010400390625 393 L 775.810400390625 393 L 775.810400390625 344" stroke-miterlimit="10"/></g><g transform="translate(-30,2) scale(1,1)"><path fill="none" stroke="#000000" d="M 803.250400390625 344 L 803.250400390625 355.76 L 815.010400390625 355.76 L 803.250400390625 344" stroke-miterlimit="10"/></g><g transform="translate(-30,2) scale(1,1)"><g><path fill="none" stroke="none"/><text fill="#000000" stroke="none" font-family="Arial" font-size="13px" font-style="normal" font-weight="bold" text-decoration="none" x="743.37548828125" y="412.5">PackageView.php</text></g></g><g transform="translate(-30,2) scale(1,1)"><path fill="#C0C0C0" stroke="none" d="M 613.869482421875 487 L 641.309482421875 487 L 653.069482421875 498.76 L 653.069482421875 536 L 613.869482421875 536" opacity="0.2"/></g><g transform="translate(-30,2) scale(1,1)"><path fill="#ffffff" stroke="none" d="M 606.869482421875 480 L 634.309482421875 480 L 646.069482421875 491.76 L 646.069482421875 529 L 606.869482421875 529"/></g><g transform="translate(-30,2) scale(1,1)"><path fill="none" stroke="#000000" d="M 606.869482421875 480 L 634.309482421875 480 L 646.069482421875 491.76 L 646.069482421875 529 L 606.869482421875 529 L 606.869482421875 480" stroke-miterlimit="10"/></g><g transform="translate(-30,2) scale(1,1)"><path fill="none" stroke="#000000" d="M 634.309482421875 480 L 634.309482421875 491.76 L 646.069482421875 491.76 L 634.309482421875 480" stroke-miterlimit="10"/></g><g transform="translate(-30,2) scale(1,1)"><g><path fill="none" stroke="none"/><text fill="#000000" stroke="none" font-family="Arial" font-size="13px" font-style="normal" font-weight="bold" text-decoration="none" x="545.52734375" y="548.5">PackageModelInterface.php</text></g></g><g transform="translate(-30,2) scale(1,1)"><path fill="none" stroke="#000000" d="M 519 376 L 536 376 L 536 256 L 487 256" stroke-miterlimit="10" stroke-dasharray="3"/></g><g transform="translate(-30,2) scale(1,1)"><path fill="none" stroke="#000000" d="M 497.16267485762415 251.790482243984 L 487 256 L 497.16267485762415 260.209517756016" stroke-miterlimit="10"/></g><g transform="translate(-30,2) scale(1,1)"><g><path fill="none" stroke="none"/><text fill="#000000" stroke="none" font-family="Arial" font-size="13px" font-style="normal" font-weight="normal" text-decoration="none" x="479.5" y="321.5">«deploy»</text></g></g><g transform="translate(-30,2) scale(1,1)"><path fill="none" stroke="#000000" d="M 687 352 L 704 352 L 704 256 L 659 256" stroke-miterlimit="10" stroke-dasharray="3"/></g><g transform="translate(-30,2) scale(1,1)"><path fill="none" stroke="#000000" d="M 669.1626748576241 251.790482243984 L 659 256 L 669.1626748576241 260.209517756016" stroke-miterlimit="10"/></g><g transform="translate(-30,2) scale(1,1)"><g><path fill="none" stroke="none"/><text fill="#000000" stroke="none" font-family="Arial" font-size="13px" font-style="normal" font-weight="normal" text-decoration="none" x="647.5" y="309.5">«deploy»</text></g></g><g transform="translate(-30,2) scale(1,1)"><path fill="none" stroke="#000000" d="M 855 368 L 872 368 L 872 256 L 827 256" stroke-miterlimit="10" stroke-dasharray="3"/></g><g transform="translate(-30,2) scale(1,1)"><path fill="none" stroke="#000000" d="M 837.1626748576241 251.790482243984 L 827 256 L 837.1626748576241 260.209517756016" stroke-miterlimit="10"/></g><g transform="translate(-30,2) scale(1,1)"><g><path fill="none" stroke="none"/><text fill="#000000" stroke="none" font-family="Arial" font-size="13px" font-style="normal" font-weight="normal" text-decoration="none" x="815.5" y="317.5">«deploy»</text></g></g><g transform="translate(-30,2) scale(1,1)"><path fill="none" stroke="#000000" d="M 717 517 L 728 517 L 728 256 L 659 256" stroke-miterlimit="10" stroke-dasharray="3"/></g><g transform="translate(-30,2) scale(1,1)"><path fill="none" stroke="#000000" d="M 669.1626748576241 251.790482243984 L 659 256 L 669.1626748576241 260.209517756016" stroke-miterlimit="10"/></g><g transform="translate(-30,2) scale(1,1)"><g><path fill="none" stroke="none"/><text fill="#000000" stroke="none" font-family="Arial" font-size="13px" font-style="normal" font-weight="normal" text-decoration="none" x="662.5" y="452.5">«deploy»</text></g></g><g transform="translate(-30,2) scale(1,1)"><path fill="none" stroke="#000000" d="M 629 240 L 629 176 L 295 176 L 295 240" stroke-miterlimit="10" stroke-dasharray="3"/></g><g transform="translate(-30,2) scale(1,1)"><path fill="none" stroke="#000000" d="M 290.790482243984 229.83732514237585 L 295 240 L 299.209517756016 229.83732514237585" stroke-miterlimit="10"/></g><g transform="translate(-30,2) scale(1,1)"><g><path fill="none" stroke="none"/><text fill="#000000" stroke="none" font-family="Arial" font-size="13px" font-style="normal" font-weight="normal" text-decoration="none" x="486.5" y="195.5">«deploy»</text></g></g><g transform="translate(-30,2) scale(1,1)"><path fill="none" stroke="#000000" d="M 447 240 L 447 208 L 296 208 L 296 240" stroke-miterlimit="10" stroke-dasharray="3"/></g><g transform="translate(-30,2) scale(1,1)"><path fill="none" stroke="#000000" d="M 291.790482243984 229.83732514237585 L 296 240 L 300.209517756016 229.83732514237585" stroke-miterlimit="10"/></g><g transform="translate(-30,2) scale(1,1)"><g><path fill="none" stroke="none"/><text fill="#000000" stroke="none" font-family="Arial" font-size="13px" font-style="normal" font-weight="normal" text-decoration="none" x="334.5" y="228.5">«deploy»</text></g></g><g transform="translate(-30,2) scale(1,1)"><path fill="#C0C0C0" stroke="none" d="M 439 713 L 486.72998046875 713 L 486.72998046875 746 L 439 746" opacity="0.2"/></g><g transform="translate(-30,2) scale(1,1)"><path fill="#C0C0C0" stroke="none" d="M 439 713 L 449 703 L 496.72998046875 703 L 486.72998046875 713" opacity="0.2"/></g><g transform="translate(-30,2) scale(1,1)"><path fill="#C0C0C0" stroke="none" d="M 496.72998046875 703 L 486.72998046875 713 L 486.72998046875 746 L 496.72998046875 736" opacity="0.2"/></g><g transform="translate(-30,2) scale(1,1)"><path fill="#ffffff" stroke="none" d="M 432 706 L 479.72998046875 706 L 479.72998046875 739 L 432 739"/></g><g transform="translate(-30,2) scale(1,1)"><path fill="#ffffff" stroke="none" d="M 432 706 L 442 696 L 489.72998046875 696 L 479.72998046875 706"/></g><g transform="translate(-30,2) scale(1,1)"><path fill="#ffffff" stroke="none" d="M 489.72998046875 696 L 479.72998046875 706 L 479.72998046875 739 L 489.72998046875 729"/></g><g transform="translate(-30,2) scale(1,1)"><path fill="none" stroke="#000000" d="M 432 706 L 479.72998046875 706 L 479.72998046875 739 L 432 739 L 432 706" stroke-miterlimit="10"/></g><g transform="translate(-30,2) scale(1,1)"><path fill="none" stroke="#000000" d="M 432 706 L 442 696 L 489.72998046875 696 L 479.72998046875 706 L 432 706" stroke-miterlimit="10"/></g><g transform="translate(-30,2) scale(1,1)"><path fill="none" stroke="#000000" d="M 489.72998046875 696 L 479.72998046875 706 L 479.72998046875 739 L 489.72998046875 729 L 489.72998046875 696" stroke-miterlimit="10"/></g><g transform="translate(-30,2) scale(1,1)"><g><path fill="none" stroke="none"/><text fill="#000000" stroke="none" font-family="Arial" font-size="13px" font-style="normal" font-weight="bold" text-decoration="none" x="444.450439453125" y="725.5">mvc</text></g></g><g transform="translate(-30,2) scale(1,1)"><path fill="#C0C0C0" stroke="none" d="M 707.080419921875 695 L 734.520419921875 695 L 746.280419921875 706.76 L 746.280419921875 744 L 707.080419921875 744" opacity="0.2"/></g><g transform="translate(-30,2) scale(1,1)"><path fill="#ffffff" stroke="none" d="M 700.080419921875 688 L 727.520419921875 688 L 739.280419921875 699.76 L 739.280419921875 737 L 700.080419921875 737"/></g><g transform="translate(-30,2) scale(1,1)"><path fill="none" stroke="#000000" d="M 700.080419921875 688 L 727.520419921875 688 L 739.280419921875 699.76 L 739.280419921875 737 L 700.080419921875 737 L 700.080419921875 688" stroke-miterlimit="10"/></g><g transform="translate(-30,2) scale(1,1)"><path fill="none" stroke="#000000" d="M 727.520419921875 688 L 727.520419921875 699.76 L 739.280419921875 699.76 L 727.520419921875 688" stroke-miterlimit="10"/></g><g transform="translate(-30,2) scale(1,1)"><g><path fill="none" stroke="none"/><text fill="#000000" stroke="none" font-family="Arial" font-size="13px" font-style="normal" font-weight="bold" text-decoration="none" x="657.8955078125" y="756.5">AsbtractInterface.php</text></g></g><g transform="translate(-30,2) scale(1,1)"><path fill="#C0C0C0" stroke="none" d="M 877.257666015625 695 L 904.697666015625 695 L 916.457666015625 706.76 L 916.457666015625 744 L 877.257666015625 744" opacity="0.2"/></g><g transform="translate(-30,2) scale(1,1)"><path fill="#ffffff" stroke="none" d="M 870.257666015625 688 L 897.697666015625 688 L 909.457666015625 699.76 L 909.457666015625 737 L 870.257666015625 737"/></g><g transform="translate(-30,2) scale(1,1)"><path fill="none" stroke="#000000" d="M 870.257666015625 688 L 897.697666015625 688 L 909.457666015625 699.76 L 909.457666015625 737 L 870.257666015625 737 L 870.257666015625 688" stroke-miterlimit="10"/></g><g transform="translate(-30,2) scale(1,1)"><path fill="none" stroke="#000000" d="M 897.697666015625 688 L 897.697666015625 699.76 L 909.457666015625 699.76 L 897.697666015625 688" stroke-miterlimit="10"/></g><g transform="translate(-30,2) scale(1,1)"><g><path fill="none" stroke="none"/><text fill="#000000" stroke="none" font-family="Arial" font-size="13px" font-style="normal" font-weight="bold" text-decoration="none" x="825.1845703125" y="756.5">ObserverInterface.php</text></g></g><g transform="translate(-30,2) scale(1,1)"><path fill="#C0C0C0" stroke="none" d="M 1040.1890625 695 L 1067.6290625000001 695 L 1079.3890625000001 706.76 L 1079.3890625000001 744 L 1040.1890625 744" opacity="0.2"/></g><g transform="translate(-30,2) scale(1,1)"><path fill="#ffffff" stroke="none" d="M 1033.1890625 688 L 1060.6290625 688 L 1072.3890625 699.76 L 1072.3890625 737 L 1033.1890625 737"/></g><g transform="translate(-30,2) scale(1,1)"><path fill="none" stroke="#000000" d="M 1033.1890625 688 L 1060.6290625 688 L 1072.3890625 699.76 L 1072.3890625 737 L 1033.1890625 737 L 1033.1890625 688" stroke-miterlimit="10"/></g><g transform="translate(-30,2) scale(1,1)"><path fill="none" stroke="#000000" d="M 1060.6290625 688 L 1060.6290625 699.76 L 1072.3890625 699.76 L 1060.6290625 688" stroke-miterlimit="10"/></g><g transform="translate(-30,2) scale(1,1)"><g><path fill="none" stroke="none"/><text fill="#000000" stroke="none" font-family="Arial" font-size="13px" font-style="normal" font-weight="bold" text-decoration="none" x="993.16552734375" y="756.5">SubjectInterface.php</text></g></g><g transform="translate(-30,2) scale(1,1)"><path fill="none" stroke="#000000" d="M 1048 688 L 1048 624 L 461 624 L 461 696" stroke-miterlimit="10" stroke-dasharray="3"/></g><g transform="translate(-30,2) scale(1,1)"><path fill="none" stroke="#000000" d="M 456.790482243984 685.8373251423759 L 461 696 L 465.209517756016 685.8373251423759" stroke-miterlimit="10"/></g><g transform="translate(-30,2) scale(1,1)"><g><path fill="none" stroke="none"/><text fill="#000000" stroke="none" font-family="Arial" font-size="13px" font-style="normal" font-weight="normal" text-decoration="none" x="959.5" y="640.5">«deploy»</text></g></g><g transform="translate(-30,2) scale(1,1)"><path fill="none" stroke="#000000" d="M 888 688 L 888 648 L 461 648 L 461 696" stroke-miterlimit="10" stroke-dasharray="3"/></g><g transform="translate(-30,2) scale(1,1)"><path fill="none" stroke="#000000" d="M 456.790482243984 685.8373251423759 L 461 696 L 465.209517756016 685.8373251423759" stroke-miterlimit="10"/></g><g transform="translate(-30,2) scale(1,1)"><g><path fill="none" stroke="none"/><text fill="#000000" stroke="none" font-family="Arial" font-size="13px" font-style="normal" font-weight="normal" text-decoration="none" x="795.5" y="667.5">«deploy»</text></g></g><g transform="translate(-30,2) scale(1,1)"><path fill="none" stroke="#000000" d="M 712 688 L 712 664 L 461 664 L 461 696" stroke-miterlimit="10" stroke-dasharray="3"/></g><g transform="translate(-30,2) scale(1,1)"><path fill="none" stroke="#000000" d="M 456.790482243984 685.8373251423759 L 461 696 L 465.209517756016 685.8373251423759" stroke-miterlimit="10"/></g><g transform="translate(-30,2) scale(1,1)"><g><path fill="none" stroke="none"/><text fill="#000000" stroke="none" font-family="Arial" font-size="13px" font-style="normal" font-weight="normal" text-decoration="none" x="623.5" y="682.5">«deploy»</text></g></g><g transform="translate(-30,2) scale(1,1)"><path fill="#C0C0C0" stroke="none" d="M 263 1041 L 330.97265625 1041 L 330.97265625 1074 L 263 1074" opacity="0.2"/></g><g transform="translate(-30,2) scale(1,1)"><path fill="#C0C0C0" stroke="none" d="M 263 1041 L 273 1031 L 340.97265625 1031 L 330.97265625 1041" opacity="0.2"/></g><g transform="translate(-30,2) scale(1,1)"><path fill="#C0C0C0" stroke="none" d="M 340.97265625 1031 L 330.97265625 1041 L 330.97265625 1074 L 340.97265625 1064" opacity="0.2"/></g><g transform="translate(-30,2) scale(1,1)"><path fill="#ffffff" stroke="none" d="M 256 1034 L 323.97265625 1034 L 323.97265625 1067 L 256 1067"/></g><g transform="translate(-30,2) scale(1,1)"><path fill="#ffffff" stroke="none" d="M 256 1034 L 266 1024 L 333.97265625 1024 L 323.97265625 1034"/></g><g transform="translate(-30,2) scale(1,1)"><path fill="#ffffff" stroke="none" d="M 333.97265625 1024 L 323.97265625 1034 L 323.97265625 1067 L 333.97265625 1057"/></g><g transform="translate(-30,2) scale(1,1)"><path fill="none" stroke="#000000" d="M 256 1034 L 323.97265625 1034 L 323.97265625 1067 L 256 1067 L 256 1034" stroke-miterlimit="10"/></g><g transform="translate(-30,2) scale(1,1)"><path fill="none" stroke="#000000" d="M 256 1034 L 266 1024 L 333.97265625 1024 L 323.97265625 1034 L 256 1034" stroke-miterlimit="10"/></g><g transform="translate(-30,2) scale(1,1)"><path fill="none" stroke="#000000" d="M 333.97265625 1024 L 323.97265625 1034 L 323.97265625 1067 L 333.97265625 1057 L 333.97265625 1024" stroke-miterlimit="10"/></g><g transform="translate(-30,2) scale(1,1)"><g><path fill="none" stroke="none"/><text fill="#000000" stroke="none" font-family="Arial" font-size="13px" font-style="normal" font-weight="bold" text-decoration="none" x="281.812255859375" y="1053.5">bin</text></g></g><g transform="translate(-30,2) scale(1,1)"><path fill="#C0C0C0" stroke="none" d="M 391 1121 L 452.45361328125 1121 L 452.45361328125 1154 L 391 1154" opacity="0.2"/></g><g transform="translate(-30,2) scale(1,1)"><path fill="#C0C0C0" stroke="none" d="M 391 1121 L 401 1111 L 462.45361328125 1111 L 452.45361328125 1121" opacity="0.2"/></g><g transform="translate(-30,2) scale(1,1)"><path fill="#C0C0C0" stroke="none" d="M 462.45361328125 1111 L 452.45361328125 1121 L 452.45361328125 1154 L 462.45361328125 1144" opacity="0.2"/></g><g transform="translate(-30,2) scale(1,1)"><path fill="#ffffff" stroke="none" d="M 384 1114 L 445.45361328125 1114 L 445.45361328125 1147 L 384 1147"/></g><g transform="translate(-30,2) scale(1,1)"><path fill="#ffffff" stroke="none" d="M 384 1114 L 394 1104 L 455.45361328125 1104 L 445.45361328125 1114"/></g><g transform="translate(-30,2) scale(1,1)"><path fill="#ffffff" stroke="none" d="M 455.45361328125 1104 L 445.45361328125 1114 L 445.45361328125 1147 L 455.45361328125 1137"/></g><g transform="translate(-30,2) scale(1,1)"><path fill="none" stroke="#000000" d="M 384 1114 L 445.45361328125 1114 L 445.45361328125 1147 L 384 1147 L 384 1114" stroke-miterlimit="10"/></g><g transform="translate(-30,2) scale(1,1)"><path fill="none" stroke="#000000" d="M 384 1114 L 394 1104 L 455.45361328125 1104 L 445.45361328125 1114 L 384 1114" stroke-miterlimit="10"/></g><g transform="translate(-30,2) scale(1,1)"><path fill="none" stroke="#000000" d="M 455.45361328125 1104 L 445.45361328125 1114 L 445.45361328125 1147 L 455.45361328125 1137 L 455.45361328125 1104" stroke-miterlimit="10"/></g><g transform="translate(-30,2) scale(1,1)"><g><path fill="none" stroke="none"/><text fill="#000000" stroke="none" font-family="Arial" font-size="13px" font-style="normal" font-weight="bold" text-decoration="none" x="390.65185546875" y="1133.5">phpspec</text></g></g><g transform="translate(-30,2) scale(1,1)"><path fill="#C0C0C0" stroke="none" d="M 663 1121 L 722.974609375 1121 L 722.974609375 1154 L 663 1154" opacity="0.2"/></g><g transform="translate(-30,2) scale(1,1)"><path fill="#C0C0C0" stroke="none" d="M 663 1121 L 673 1111 L 732.974609375 1111 L 722.974609375 1121" opacity="0.2"/></g><g transform="translate(-30,2) scale(1,1)"><path fill="#C0C0C0" stroke="none" d="M 732.974609375 1111 L 722.974609375 1121 L 722.974609375 1154 L 732.974609375 1144" opacity="0.2"/></g><g transform="translate(-30,2) scale(1,1)"><path fill="#ffffff" stroke="none" d="M 656 1114 L 715.974609375 1114 L 715.974609375 1147 L 656 1147"/></g><g transform="translate(-30,2) scale(1,1)"><path fill="#ffffff" stroke="none" d="M 656 1114 L 666 1104 L 725.974609375 1104 L 715.974609375 1114"/></g><g transform="translate(-30,2) scale(1,1)"><path fill="#ffffff" stroke="none" d="M 725.974609375 1104 L 715.974609375 1114 L 715.974609375 1147 L 725.974609375 1137"/></g><g transform="translate(-30,2) scale(1,1)"><path fill="none" stroke="#000000" d="M 656 1114 L 715.974609375 1114 L 715.974609375 1147 L 656 1147 L 656 1114" stroke-miterlimit="10"/></g><g transform="translate(-30,2) scale(1,1)"><path fill="none" stroke="#000000" d="M 656 1114 L 666 1104 L 725.974609375 1104 L 715.974609375 1114 L 656 1114" stroke-miterlimit="10"/></g><g transform="translate(-30,2) scale(1,1)"><path fill="none" stroke="#000000" d="M 725.974609375 1104 L 715.974609375 1114 L 715.974609375 1147 L 725.974609375 1137 L 725.974609375 1104" stroke-miterlimit="10"/></g><g transform="translate(-30,2) scale(1,1)"><g><path fill="none" stroke="none"/><text fill="#000000" stroke="none" font-family="Arial" font-size="13px" font-style="normal" font-weight="bold" text-decoration="none" x="662.997802734375" y="1133.5">php-unit</text></g></g><g transform="translate(-30,2) scale(1,1)"><path fill="none" stroke="#000000" d="M 448 696 L 448 638 L 293 638 L 293 696" stroke-miterlimit="10" stroke-dasharray="3"/></g><g transform="translate(-30,2) scale(1,1)"><path fill="none" stroke="#000000" d="M 288.790482243984 685.8373251423759 L 293 696 L 297.209517756016 685.8373251423759" stroke-miterlimit="10"/></g><g transform="translate(-30,2) scale(1,1)"><g><path fill="none" stroke="none"/><text fill="#000000" stroke="none" font-family="Arial" font-size="13px" font-style="normal" font-weight="normal" text-decoration="none" x="343.5" y="655.5">«deploy»</text></g></g><g transform="translate(-30,2) scale(1,1)"><path fill="#C0C0C0" stroke="none" d="M 442.2681640625 839 L 469.7081640625 839 L 481.46816406249997 850.76 L 481.46816406249997 888 L 442.2681640625 888" opacity="0.2"/></g><g transform="translate(-30,2) scale(1,1)"><path fill="#ffffff" stroke="none" d="M 435.2681640625 832 L 462.70816406250003 832 L 474.4681640625 843.76 L 474.4681640625 881 L 435.2681640625 881"/></g><g transform="translate(-30,2) scale(1,1)"><path fill="none" stroke="#000000" d="M 435.2681640625 832 L 462.70816406250003 832 L 474.4681640625 843.76 L 474.4681640625 881 L 435.2681640625 881 L 435.2681640625 832" stroke-miterlimit="10"/></g><g transform="translate(-30,2) scale(1,1)"><path fill="none" stroke="#000000" d="M 462.70816406250003 832 L 462.70816406250003 843.76 L 474.4681640625 843.76 L 462.70816406250003 832" stroke-miterlimit="10"/></g><g transform="translate(-30,2) scale(1,1)"><g><path fill="none" stroke="none"/><text fill="#000000" stroke="none" font-family="Arial" font-size="13px" font-style="normal" font-weight="bold" text-decoration="none" x="433.543212890625" y="900.5">api.php</text></g></g><g transform="translate(-30,2) scale(1,1)"><path fill="none" stroke="#000000" d="M 448 832 L 448 808 L 285 808 L 285 848" stroke-miterlimit="10" stroke-dasharray="3"/></g><g transform="translate(-30,2) scale(1,1)"><path fill="none" stroke="#000000" d="M 280.790482243984 837.8373251423759 L 285 848 L 289.209517756016 837.8373251423759" stroke-miterlimit="10"/></g><g transform="translate(-30,2) scale(1,1)"><g><path fill="none" stroke="none"/><text fill="#000000" stroke="none" font-family="Arial" font-size="13px" font-style="normal" font-weight="normal" text-decoration="none" x="338.5" y="844.5">«deploy»</text></g></g><g transform="translate(-30,2) scale(1,1)"><path fill="#C0C0C0" stroke="none" d="M 617 1049 L 684.97265625 1049 L 684.97265625 1082 L 617 1082" opacity="0.2"/></g><g transform="translate(-30,2) scale(1,1)"><path fill="#C0C0C0" stroke="none" d="M 617 1049 L 627 1039 L 694.97265625 1039 L 684.97265625 1049" opacity="0.2"/></g><g transform="translate(-30,2) scale(1,1)"><path fill="#C0C0C0" stroke="none" d="M 694.97265625 1039 L 684.97265625 1049 L 684.97265625 1082 L 694.97265625 1072" opacity="0.2"/></g><g transform="translate(-30,2) scale(1,1)"><path fill="#ffffff" stroke="none" d="M 610 1042 L 677.97265625 1042 L 677.97265625 1075 L 610 1075"/></g><g transform="translate(-30,2) scale(1,1)"><path fill="#ffffff" stroke="none" d="M 610 1042 L 620 1032 L 687.97265625 1032 L 677.97265625 1042"/></g><g transform="translate(-30,2) scale(1,1)"><path fill="#ffffff" stroke="none" d="M 687.97265625 1032 L 677.97265625 1042 L 677.97265625 1075 L 687.97265625 1065"/></g><g transform="translate(-30,2) scale(1,1)"><path fill="none" stroke="#000000" d="M 610 1042 L 677.97265625 1042 L 677.97265625 1075 L 610 1075 L 610 1042" stroke-miterlimit="10"/></g><g transform="translate(-30,2) scale(1,1)"><path fill="none" stroke="#000000" d="M 610 1042 L 620 1032 L 687.97265625 1032 L 677.97265625 1042 L 610 1042" stroke-miterlimit="10"/></g><g transform="translate(-30,2) scale(1,1)"><path fill="none" stroke="#000000" d="M 687.97265625 1032 L 677.97265625 1042 L 677.97265625 1075 L 687.97265625 1065 L 687.97265625 1032" stroke-miterlimit="10"/></g><g transform="translate(-30,2) scale(1,1)"><g><path fill="none" stroke="none"/><text fill="#000000" stroke="none" font-family="Arial" font-size="13px" font-style="normal" font-weight="bold" text-decoration="none" x="620.647705078125" y="1061.5">myclabs</text></g></g><g transform="translate(-30,2) scale(1,1)"><path fill="#C0C0C0" stroke="none" d="M 735 1049 L 802.97265625 1049 L 802.97265625 1082 L 735 1082" opacity="0.2"/></g><g transform="translate(-30,2) scale(1,1)"><path fill="#C0C0C0" stroke="none" d="M 735 1049 L 745 1039 L 812.97265625 1039 L 802.97265625 1049" opacity="0.2"/></g><g transform="translate(-30,2) scale(1,1)"><path fill="#C0C0C0" stroke="none" d="M 812.97265625 1039 L 802.97265625 1049 L 802.97265625 1082 L 812.97265625 1072" opacity="0.2"/></g><g transform="translate(-30,2) scale(1,1)"><path fill="#ffffff" stroke="none" d="M 728 1042 L 795.97265625 1042 L 795.97265625 1075 L 728 1075"/></g><g transform="translate(-30,2) scale(1,1)"><path fill="#ffffff" stroke="none" d="M 728 1042 L 738 1032 L 805.97265625 1032 L 795.97265625 1042"/></g><g transform="translate(-30,2) scale(1,1)"><path fill="#ffffff" stroke="none" d="M 805.97265625 1032 L 795.97265625 1042 L 795.97265625 1075 L 805.97265625 1065"/></g><g transform="translate(-30,2) scale(1,1)"><path fill="none" stroke="#000000" d="M 728 1042 L 795.97265625 1042 L 795.97265625 1075 L 728 1075 L 728 1042" stroke-miterlimit="10"/></g><g transform="translate(-30,2) scale(1,1)"><path fill="none" stroke="#000000" d="M 728 1042 L 738 1032 L 805.97265625 1032 L 795.97265625 1042 L 728 1042" stroke-miterlimit="10"/></g><g transform="translate(-30,2) scale(1,1)"><path fill="none" stroke="#000000" d="M 805.97265625 1032 L 795.97265625 1042 L 795.97265625 1075 L 805.97265625 1065 L 805.97265625 1032" stroke-miterlimit="10"/></g><g transform="translate(-30,2) scale(1,1)"><g><path fill="none" stroke="none"/><text fill="#000000" stroke="none" font-family="Arial" font-size="13px" font-style="normal" font-weight="bold" text-decoration="none" x="753.456787109375" y="1061.5">psr</text></g></g><g transform="translate(-30,2) scale(1,1)"><path fill="#C0C0C0" stroke="none" d="M 381 1041 L 448.97265625 1041 L 448.97265625 1074 L 381 1074" opacity="0.2"/></g><g transform="translate(-30,2) scale(1,1)"><path fill="#C0C0C0" stroke="none" d="M 381 1041 L 391 1031 L 458.97265625 1031 L 448.97265625 1041" opacity="0.2"/></g><g transform="translate(-30,2) scale(1,1)"><path fill="#C0C0C0" stroke="none" d="M 458.97265625 1031 L 448.97265625 1041 L 448.97265625 1074 L 458.97265625 1064" opacity="0.2"/></g><g transform="translate(-30,2) scale(1,1)"><path fill="#ffffff" stroke="none" d="M 374 1034 L 441.97265625 1034 L 441.97265625 1067 L 374 1067"/></g><g transform="translate(-30,2) scale(1,1)"><path fill="#ffffff" stroke="none" d="M 374 1034 L 384 1024 L 451.97265625 1024 L 441.97265625 1034"/></g><g transform="translate(-30,2) scale(1,1)"><path fill="#ffffff" stroke="none" d="M 451.97265625 1024 L 441.97265625 1034 L 441.97265625 1067 L 451.97265625 1057"/></g><g transform="translate(-30,2) scale(1,1)"><path fill="none" stroke="#000000" d="M 374 1034 L 441.97265625 1034 L 441.97265625 1067 L 374 1067 L 374 1034" stroke-miterlimit="10"/></g><g transform="translate(-30,2) scale(1,1)"><path fill="none" stroke="#000000" d="M 374 1034 L 384 1024 L 451.97265625 1024 L 441.97265625 1034 L 374 1034" stroke-miterlimit="10"/></g><g transform="translate(-30,2) scale(1,1)"><path fill="none" stroke="#000000" d="M 451.97265625 1024 L 441.97265625 1034 L 441.97265625 1067 L 451.97265625 1057 L 451.97265625 1024" stroke-miterlimit="10"/></g><g transform="translate(-30,2) scale(1,1)"><g><path fill="none" stroke="none"/><text fill="#000000" stroke="none" font-family="Arial" font-size="13px" font-style="normal" font-weight="bold" text-decoration="none" x="385.36181640625" y="1053.5">doctrine</text></g></g><g transform="translate(-30,2) scale(1,1)"><path fill="#C0C0C0" stroke="none" d="M 499 1041 L 566.97265625 1041 L 566.97265625 1074 L 499 1074" opacity="0.2"/></g><g transform="translate(-30,2) scale(1,1)"><path fill="#C0C0C0" stroke="none" d="M 499 1041 L 509 1031 L 576.97265625 1031 L 566.97265625 1041" opacity="0.2"/></g><g transform="translate(-30,2) scale(1,1)"><path fill="#C0C0C0" stroke="none" d="M 576.97265625 1031 L 566.97265625 1041 L 566.97265625 1074 L 576.97265625 1064" opacity="0.2"/></g><g transform="translate(-30,2) scale(1,1)"><path fill="#ffffff" stroke="none" d="M 492 1034 L 559.97265625 1034 L 559.97265625 1067 L 492 1067"/></g><g transform="translate(-30,2) scale(1,1)"><path fill="#ffffff" stroke="none" d="M 492 1034 L 502 1024 L 569.97265625 1024 L 559.97265625 1034"/></g><g transform="translate(-30,2) scale(1,1)"><path fill="#ffffff" stroke="none" d="M 569.97265625 1024 L 559.97265625 1034 L 559.97265625 1067 L 569.97265625 1057"/></g><g transform="translate(-30,2) scale(1,1)"><path fill="none" stroke="#000000" d="M 492 1034 L 559.97265625 1034 L 559.97265625 1067 L 492 1067 L 492 1034" stroke-miterlimit="10"/></g><g transform="translate(-30,2) scale(1,1)"><path fill="none" stroke="#000000" d="M 492 1034 L 502 1024 L 569.97265625 1024 L 559.97265625 1034 L 492 1034" stroke-miterlimit="10"/></g><g transform="translate(-30,2) scale(1,1)"><path fill="none" stroke="#000000" d="M 569.97265625 1024 L 559.97265625 1034 L 559.97265625 1067 L 569.97265625 1057 L 569.97265625 1024" stroke-miterlimit="10"/></g><g transform="translate(-30,2) scale(1,1)"><g><path fill="none" stroke="none"/><text fill="#000000" stroke="none" font-family="Arial" font-size="13px" font-style="normal" font-weight="bold" text-decoration="none" x="502.63818359375" y="1053.5">phare-io</text></g></g><g transform="translate(-30,2) scale(1,1)"><path fill="#C0C0C0" stroke="none" d="M 767 1121 L 842.90087890625 1121 L 842.90087890625 1154 L 767 1154" opacity="0.2"/></g><g transform="translate(-30,2) scale(1,1)"><path fill="#C0C0C0" stroke="none" d="M 767 1121 L 777 1111 L 852.90087890625 1111 L 842.90087890625 1121" opacity="0.2"/></g><g transform="translate(-30,2) scale(1,1)"><path fill="#C0C0C0" stroke="none" d="M 852.90087890625 1111 L 842.90087890625 1121 L 842.90087890625 1154 L 852.90087890625 1144" opacity="0.2"/></g><g transform="translate(-30,2) scale(1,1)"><path fill="#ffffff" stroke="none" d="M 760 1114 L 835.90087890625 1114 L 835.90087890625 1147 L 760 1147"/></g><g transform="translate(-30,2) scale(1,1)"><path fill="#ffffff" stroke="none" d="M 760 1114 L 770 1104 L 845.90087890625 1104 L 835.90087890625 1114"/></g><g transform="translate(-30,2) scale(1,1)"><path fill="#ffffff" stroke="none" d="M 845.90087890625 1104 L 835.90087890625 1114 L 835.90087890625 1147 L 845.90087890625 1137"/></g><g transform="translate(-30,2) scale(1,1)"><path fill="none" stroke="#000000" d="M 760 1114 L 835.90087890625 1114 L 835.90087890625 1147 L 760 1147 L 760 1114" stroke-miterlimit="10"/></g><g transform="translate(-30,2) scale(1,1)"><path fill="none" stroke="#000000" d="M 760 1114 L 770 1104 L 845.90087890625 1104 L 835.90087890625 1114 L 760 1114" stroke-miterlimit="10"/></g><g transform="translate(-30,2) scale(1,1)"><path fill="none" stroke="#000000" d="M 845.90087890625 1104 L 835.90087890625 1114 L 835.90087890625 1147 L 845.90087890625 1137 L 845.90087890625 1104" stroke-miterlimit="10"/></g><g transform="translate(-30,2) scale(1,1)"><g><path fill="none" stroke="none"/><text fill="#000000" stroke="none" font-family="Arial" font-size="13px" font-style="normal" font-weight="bold" text-decoration="none" x="766.661376953125" y="1133.5">webmozart</text></g></g><g transform="translate(-30,2) scale(1,1)"><path fill="#C0C0C0" stroke="none" d="M 263 1121 L 333.130859375 1121 L 333.130859375 1154 L 263 1154" opacity="0.2"/></g><g transform="translate(-30,2) scale(1,1)"><path fill="#C0C0C0" stroke="none" d="M 263 1121 L 273 1111 L 343.130859375 1111 L 333.130859375 1121" opacity="0.2"/></g><g transform="translate(-30,2) scale(1,1)"><path fill="#C0C0C0" stroke="none" d="M 343.130859375 1111 L 333.130859375 1121 L 333.130859375 1154 L 343.130859375 1144" opacity="0.2"/></g><g transform="translate(-30,2) scale(1,1)"><path fill="#ffffff" stroke="none" d="M 256 1114 L 326.130859375 1114 L 326.130859375 1147 L 256 1147"/></g><g transform="translate(-30,2) scale(1,1)"><path fill="#ffffff" stroke="none" d="M 256 1114 L 266 1104 L 336.130859375 1104 L 326.130859375 1114"/></g><g transform="translate(-30,2) scale(1,1)"><path fill="#ffffff" stroke="none" d="M 336.130859375 1104 L 326.130859375 1114 L 326.130859375 1147 L 336.130859375 1137"/></g><g transform="translate(-30,2) scale(1,1)"><path fill="none" stroke="#000000" d="M 256 1114 L 326.130859375 1114 L 326.130859375 1147 L 256 1147 L 256 1114" stroke-miterlimit="10"/></g><g transform="translate(-30,2) scale(1,1)"><path fill="none" stroke="#000000" d="M 256 1114 L 266 1104 L 336.130859375 1104 L 326.130859375 1114 L 256 1114" stroke-miterlimit="10"/></g><g transform="translate(-30,2) scale(1,1)"><path fill="none" stroke="#000000" d="M 336.130859375 1104 L 326.130859375 1114 L 326.130859375 1147 L 336.130859375 1137 L 336.130859375 1104" stroke-miterlimit="10"/></g><g transform="translate(-30,2) scale(1,1)"><g><path fill="none" stroke="none"/><text fill="#000000" stroke="none" font-family="Arial" font-size="13px" font-style="normal" font-weight="bold" text-decoration="none" x="263.0263671875" y="1133.5">composer</text></g></g><g transform="translate(-30,2) scale(1,1)"><path fill="#C0C0C0" stroke="none" d="M 853 1049 L 920.97265625 1049 L 920.97265625 1082 L 853 1082" opacity="0.2"/></g><g transform="translate(-30,2) scale(1,1)"><path fill="#C0C0C0" stroke="none" d="M 853 1049 L 863 1039 L 930.97265625 1039 L 920.97265625 1049" opacity="0.2"/></g><g transform="translate(-30,2) scale(1,1)"><path fill="#C0C0C0" stroke="none" d="M 930.97265625 1039 L 920.97265625 1049 L 920.97265625 1082 L 930.97265625 1072" opacity="0.2"/></g><g transform="translate(-30,2) scale(1,1)"><path fill="#ffffff" stroke="none" d="M 846 1042 L 913.97265625 1042 L 913.97265625 1075 L 846 1075"/></g><g transform="translate(-30,2) scale(1,1)"><path fill="#ffffff" stroke="none" d="M 846 1042 L 856 1032 L 923.97265625 1032 L 913.97265625 1042"/></g><g transform="translate(-30,2) scale(1,1)"><path fill="#ffffff" stroke="none" d="M 923.97265625 1032 L 913.97265625 1042 L 913.97265625 1075 L 923.97265625 1065"/></g><g transform="translate(-30,2) scale(1,1)"><path fill="none" stroke="#000000" d="M 846 1042 L 913.97265625 1042 L 913.97265625 1075 L 846 1075 L 846 1042" stroke-miterlimit="10"/></g><g transform="translate(-30,2) scale(1,1)"><path fill="none" stroke="#000000" d="M 846 1042 L 856 1032 L 923.97265625 1032 L 913.97265625 1042 L 846 1042" stroke-miterlimit="10"/></g><g transform="translate(-30,2) scale(1,1)"><path fill="none" stroke="#000000" d="M 923.97265625 1032 L 913.97265625 1042 L 913.97265625 1075 L 923.97265625 1065 L 923.97265625 1032" stroke-miterlimit="10"/></g><g transform="translate(-30,2) scale(1,1)"><g><path fill="none" stroke="none"/><text fill="#000000" stroke="none" font-family="Arial" font-size="13px" font-style="normal" font-weight="bold" text-decoration="none" x="852.661376953125" y="1061.5">sebastian</text></g></g><g transform="translate(-30,2) scale(1,1)"><path fill="#C0C0C0" stroke="none" d="M 495 1121 L 601.9345703125 1121 L 601.9345703125 1154 L 495 1154" opacity="0.2"/></g><g transform="translate(-30,2) scale(1,1)"><path fill="#C0C0C0" stroke="none" d="M 495 1121 L 505 1111 L 611.9345703125 1111 L 601.9345703125 1121" opacity="0.2"/></g><g transform="translate(-30,2) scale(1,1)"><path fill="#C0C0C0" stroke="none" d="M 611.9345703125 1111 L 601.9345703125 1121 L 601.9345703125 1154 L 611.9345703125 1144" opacity="0.2"/></g><g transform="translate(-30,2) scale(1,1)"><path fill="#ffffff" stroke="none" d="M 488 1114 L 594.9345703125 1114 L 594.9345703125 1147 L 488 1147"/></g><g transform="translate(-30,2) scale(1,1)"><path fill="#ffffff" stroke="none" d="M 488 1114 L 498 1104 L 604.9345703125 1104 L 594.9345703125 1114"/></g><g transform="translate(-30,2) scale(1,1)"><path fill="#ffffff" stroke="none" d="M 604.9345703125 1104 L 594.9345703125 1114 L 594.9345703125 1147 L 604.9345703125 1137"/></g><g transform="translate(-30,2) scale(1,1)"><path fill="none" stroke="#000000" d="M 488 1114 L 594.9345703125 1114 L 594.9345703125 1147 L 488 1147 L 488 1114" stroke-miterlimit="10"/></g><g transform="translate(-30,2) scale(1,1)"><path fill="none" stroke="#000000" d="M 488 1114 L 498 1104 L 604.9345703125 1104 L 594.9345703125 1114 L 488 1114" stroke-miterlimit="10"/></g><g transform="translate(-30,2) scale(1,1)"><path fill="none" stroke="#000000" d="M 604.9345703125 1104 L 594.9345703125 1114 L 594.9345703125 1147 L 604.9345703125 1137 L 604.9345703125 1104" stroke-miterlimit="10"/></g><g transform="translate(-30,2) scale(1,1)"><g><path fill="none" stroke="none"/><text fill="#000000" stroke="none" font-family="Arial" font-size="13px" font-style="normal" font-weight="bold" text-decoration="none" x="496.79736328125" y="1133.5">phpdocumentor</text></g></g><g transform="translate(-30,2) scale(1,1)"><path fill="#C0C0C0" stroke="none" d="M 892.68271484375 1103 L 920.12271484375 1103 L 931.88271484375 1114.76 L 931.88271484375 1152 L 892.68271484375 1152" opacity="0.2"/></g><g transform="translate(-30,2) scale(1,1)"><path fill="#ffffff" stroke="none" d="M 885.68271484375 1096 L 913.12271484375 1096 L 924.88271484375 1107.76 L 924.88271484375 1145 L 885.68271484375 1145"/></g><g transform="translate(-30,2) scale(1,1)"><path fill="none" stroke="#000000" d="M 885.68271484375 1096 L 913.12271484375 1096 L 924.88271484375 1107.76 L 924.88271484375 1145 L 885.68271484375 1145 L 885.68271484375 1096" stroke-miterlimit="10"/></g><g transform="translate(-30,2) scale(1,1)"><path fill="none" stroke="#000000" d="M 913.12271484375 1096 L 913.12271484375 1107.76 L 924.88271484375 1107.76 L 913.12271484375 1096" stroke-miterlimit="10"/></g><g transform="translate(-30,2) scale(1,1)"><g><path fill="none" stroke="none"/><text fill="#000000" stroke="none" font-family="Arial" font-size="13px" font-style="normal" font-weight="bold" text-decoration="none" x="867.69189453125" y="1164.5">autoload.php</text></g></g><g transform="translate(-30,2) scale(1,1)"><path fill="#ffffff" stroke="none" d="M 696 800 L 983 800 Q 1055 800 1055 872 L 1055 887 Q 1055 959 983 959 L 696 959 Q 624 959 624 887 L 624 872 Q 624 800 696 800 Z"/></g><g transform="translate(-30,2) scale(1,1)"><path fill="none" stroke="#000000" d="M 696 800 L 983 800 Q 1055 800 1055 872 L 1055 887 Q 1055 959 983 959 L 696 959 Q 624 959 624 887 L 624 872 Q 624 800 696 800 Z" stroke-miterlimit="10"/></g><g transform="translate(-30,2) scale(1,1)"><path fill="#ffffff" stroke="none" d="M 656 816 L 988 816 L 998 826 L 998 942 L 656 942 L 656 816"/></g><g transform="translate(-30,2) scale(1,1)"><path fill="none" stroke="#000000" d="M 656 816 L 988 816 L 998 826 L 998 942 L 656 942 L 656 816 L 656 816" stroke-miterlimit="10"/></g><g transform="translate(-30,2) scale(1,1)"><path fill="none" stroke="#000000" d="M 988 816 L 988 826 L 998 826 L 988 816" stroke-miterlimit="10"/></g><g transform="translate(-30,2) scale(1,1)"><g><path fill="none" stroke="none"/><text fill="#000000" stroke="none" font-family="Arial" font-size="13px" font-style="normal" font-weight="normal" text-decoration="none" x="661" y="834">This api provides an universal packagind definition.</text></g></g><g transform="translate(-30,2) scale(1,1)"><g><path fill="none" stroke="none"/></g></g><g transform="translate(-30,2) scale(1,1)"><g><path fill="none" stroke="none"/></g></g><g transform="translate(-30,2) scale(1,1)"><g><path fill="none" stroke="none"/><text fill="#000000" stroke="none" font-family="Arial" font-size="13px" font-style="normal" font-weight="normal" text-decoration="none" x="661" y="853">For a package input, the API is going to find (using github</text><text fill="#000000" stroke="none" font-family="Arial" font-size="13px" font-style="normal" font-weight="normal" text-decoration="none" x="661" y="866">convention) the full library description, checking if it's</text><text fill="#000000" stroke="none" font-family="Arial" font-size="13px" font-style="normal" font-weight="normal" text-decoration="none" x="661" y="879">tested and distributed, requesting all over the web (travis,</text><text fill="#000000" stroke="none" font-family="Arial" font-size="13px" font-style="normal" font-weight="normal" text-decoration="none" x="661" y="892">npm, packalist).</text></g></g><g transform="translate(-30,2) scale(1,1)"><path fill="none" stroke="#000000" d="M 285 284 L 285 848" stroke-miterlimit="10" stroke-dasharray="3"/></g><g transform="translate(-30,2) scale(1,1)"><path fill="none" stroke="#000000" d="M 280.790482243984 837.8373251423759 L 285 848 L 289.209517756016 837.8373251423759" stroke-miterlimit="10"/></g><g transform="translate(-30,2) scale(1,1)"><g><path fill="none" stroke="none"/><text fill="#000000" stroke="none" font-family="Arial" font-size="13px" font-style="normal" font-weight="normal" text-decoration="none" x="285.5" y="571.5">+use</text></g></g><g transform="translate(-30,2) scale(1,1)"><g><path fill="none" stroke="none"/><text fill="#000000" stroke="none" font-family="Arial" font-size="13px" font-style="normal" font-weight="normal" text-decoration="none" x="288.5" y="571.5">«deploy»</text></g></g><g transform="translate(-30,2) scale(1,1)"><path fill="none" stroke="#000000" d="M 255 263 L 216 264 L 216 720 L 263 719" stroke-miterlimit="10" stroke-dasharray="3"/></g><g transform="translate(-30,2) scale(1,1)"><path fill="none" stroke="#000000" d="M 252.9291685921226 723.4247434676047 L 263 719 L 252.7500807083493 715.0076129302576" stroke-miterlimit="10"/></g><g transform="translate(-30,2) scale(1,1)"><g><path fill="none" stroke="none"/><text fill="#000000" stroke="none" font-family="Arial" font-size="13px" font-style="normal" font-weight="normal" text-decoration="none" x="231.5" y="496.5">«use»</text></g></g><g transform="translate(-30,2) scale(1,1)"><path fill="none" stroke="#000000" d="M 256 872 L 160 872 L 160 256 L 256 256" stroke-miterlimit="10" stroke-dasharray="3"/></g><g transform="translate(-30,2) scale(1,1)"><path fill="none" stroke="#000000" d="M 245.83732514237585 260.209517756016 L 256 256 L 245.83732514237585 251.790482243984" stroke-miterlimit="10"/></g><g transform="translate(-30,2) scale(1,1)"><g><path fill="none" stroke="none"/><text fill="#000000" stroke="none" font-family="Arial" font-size="13px" font-style="normal" font-weight="normal" text-decoration="none" x="112.5" y="569.5">«use»</text></g></g><g transform="translate(-30,2) scale(1,1)"><path fill="none" stroke="#000000" d="M 256 880 L 192 880 L 192 1082 L 224 1082" stroke-miterlimit="10" stroke-dasharray="3"/></g><g transform="translate(-30,2) scale(1,1)"><path fill="none" stroke="#000000" d="M 213.83732514237585 1086.2095177560159 L 224 1082 L 213.83732514237585 1077.7904822439841" stroke-miterlimit="10"/></g><g transform="translate(-30,2) scale(1,1)"><g><path fill="none" stroke="none"/><text fill="#000000" stroke="none" font-family="Arial" font-size="13px" font-style="normal" font-weight="normal" text-decoration="none" x="143.5" y="1017.5">«use»</text></g></g></g></svg>