<svg version="1.1" xmlns="http://www.w3.org/2000/svg" xmlns:xlink="http://www.w3.org/1999/xlink" width="876" height="880"><defs/><g><g transform="translate(-86,-38) scale(1,1)"><rect fill="#C0C0C0" stroke="none" x="167" y="336" width="207.37060546875" height="100" opacity="0.2"/></g><g transform="translate(-86,-38) scale(1,1)"><rect fill="#ffffff" stroke="none" x="160" y="329" width="207.37060546875" height="100"/></g><g transform="translate(-86,-38) scale(1,1)"><path fill="none" stroke="#000000" d="M 160 329 L 367.37060546875 329 L 367.37060546875 429 L 160 429 L 160 329 Z Z" stroke-miterlimit="10"/></g><g transform="translate(-86,-38) scale(1,1)"><path fill="none" stroke="#000000" d="M 160 354 L 367.37060546875 354" stroke-miterlimit="10"/></g><g transform="translate(-86,-38) scale(1,1)"><path fill="none" stroke="#000000" d="M 160 377 L 367.37060546875 377" stroke-miterlimit="10"/></g><g transform="translate(-86,-38) scale(1,1)"><g><path fill="none" stroke="none"/><text fill="#000000" stroke="none" font-family="Arial" font-size="13px" font-style="normal" font-weight="bold" text-decoration="none" x="249.5966796875" y="348.5">View</text></g></g><g transform="translate(-86,-38) scale(1,1)"><g><path fill="none" stroke="none"/><text fill="#000000" stroke="none" font-family="Arial" font-size="13px" font-style="normal" font-weight="normal" text-decoration="none" x="165" y="371.5">-template: string</text></g></g><g transform="translate(-86,-38) scale(1,1)"><g><path fill="none" stroke="none"/><text fill="#000000" stroke="none" font-family="Arial" font-size="13px" font-style="normal" font-weight="normal" text-decoration="none" x="165" y="394.5">+&lt;&lt;create&gt;&gt;()</text></g></g><g transform="translate(-86,-38) scale(1,1)"><g><path fill="none" stroke="none"/><text fill="#000000" stroke="none" font-family="Arial" font-size="13px" font-style="normal" font-weight="normal" text-decoration="none" x="165" y="409.5">+update(subject: SubjectInterface)</text></g></g><g transform="translate(-86,-38) scale(1,1)"><g><path fill="none" stroke="none"/><text fill="#000000" stroke="none" font-family="Arial" font-size="13px" font-style="normal" font-weight="normal" text-decoration="none" x="165" y="424.5">+render(): string</text></g></g><g transform="translate(-86,-38) scale(1,1)"><rect fill="#C0C0C0" stroke="none" x="103" y="530" width="339.5986328125" height="115" opacity="0.2"/></g><g transform="translate(-86,-38) scale(1,1)"><rect fill="#ffffff" stroke="none" x="96" y="523" width="339.5986328125" height="115"/></g><g transform="translate(-86,-38) scale(1,1)"><path fill="none" stroke="#000000" d="M 96 523 L 435.5986328125 523 L 435.5986328125 638 L 96 638 L 96 523 Z Z" stroke-miterlimit="10"/></g><g transform="translate(-86,-38) scale(1,1)"><path fill="none" stroke="#000000" d="M 96 548 L 435.5986328125 548" stroke-miterlimit="10"/></g><g transform="translate(-86,-38) scale(1,1)"><path fill="none" stroke="#000000" d="M 96 586 L 435.5986328125 586" stroke-miterlimit="10"/></g><g transform="translate(-86,-38) scale(1,1)"><g><path fill="none" stroke="none"/><text fill="#000000" stroke="none" font-family="Arial" font-size="13px" font-style="normal" font-weight="bold" text-decoration="none" x="212.32666015625" y="542.5">PackageController</text></g></g><g transform="translate(-86,-38) scale(1,1)"><g><path fill="none" stroke="none"/><text fill="#000000" stroke="none" font-family="Arial" font-size="13px" font-style="normal" font-weight="normal" text-decoration="none" x="101" y="565.5">-model: PackageModel</text></g></g><g transform="translate(-86,-38) scale(1,1)"><g><path fill="none" stroke="none"/><text fill="#000000" stroke="none" font-family="Arial" font-size="13px" font-style="normal" font-weight="normal" text-decoration="none" x="101" y="580.5">-view: PackageView</text></g></g><g transform="translate(-86,-38) scale(1,1)"><g><path fill="none" stroke="none"/><text fill="#000000" stroke="none" font-family="Arial" font-size="13px" font-style="normal" font-weight="normal" text-decoration="none" x="101" y="603.5">+&lt;&lt;create&gt;&gt;(model: PackageModel, view, PackageView)</text></g></g><g transform="translate(-86,-38) scale(1,1)"><g><path fill="none" stroke="none"/><text fill="#000000" stroke="none" font-family="Arial" font-size="13px" font-style="normal" font-weight="normal" text-decoration="none" x="101" y="618.5">-isPackage(): bool</text></g></g><g transform="translate(-86,-38) scale(1,1)"><g><path fill="none" stroke="none"/><text fill="#000000" stroke="none" font-family="Arial" font-size="13px" font-style="normal" font-weight="normal" text-decoration="none" x="101" y="633.5">+execute(): string</text></g></g><g transform="translate(-86,-38) scale(1,1)"><rect fill="#C0C0C0" stroke="none" x="514" y="530" width="445" height="385" opacity="0.2"/></g><g transform="translate(-86,-38) scale(1,1)"><rect fill="#ffffff" stroke="none" x="507" y="523" width="445" height="385"/></g><g transform="translate(-86,-38) scale(1,1)"><path fill="none" stroke="#000000" d="M 507 523 L 952 523 L 952 908 L 507 908 L 507 523 Z Z" stroke-miterlimit="10"/></g><g transform="translate(-86,-38) scale(1,1)"><path fill="none" stroke="#000000" d="M 507 548 L 952 548" stroke-miterlimit="10"/></g><g transform="translate(-86,-38) scale(1,1)"><path fill="none" stroke="#000000" d="M 507 721 L 952 721" stroke-miterlimit="10"/></g><g transform="translate(-86,-38) scale(1,1)"><g><path fill="none" stroke="none"/><text fill="#000000" stroke="none" font-family="Arial" font-size="13px" font-style="normal" font-weight="bold" text-decoration="none" x="711.79638671875" y="542.5">Model</text></g></g><g transform="translate(-86,-38) scale(1,1)"><g><path fill="none" stroke="none"/><text fill="#000000" stroke="none" font-family="Arial" font-size="13px" font-style="normal" font-weight="normal" text-decoration="none" x="512" y="565.5">+package: string</text></g></g><g transform="translate(-86,-38) scale(1,1)"><g><path fill="none" stroke="none"/><text fill="#000000" stroke="none" font-family="Arial" font-size="13px" font-style="normal" font-weight="normal" text-decoration="none" x="512" y="580.5">+description: string</text></g></g><g transform="translate(-86,-38) scale(1,1)"><g><path fill="none" stroke="none"/><text fill="#000000" stroke="none" font-family="Arial" font-size="13px" font-style="normal" font-weight="normal" text-decoration="none" x="512" y="595.5">+keywords: array</text></g></g><g transform="translate(-86,-38) scale(1,1)"><g><path fill="none" stroke="none"/><text fill="#000000" stroke="none" font-family="Arial" font-size="13px" font-style="normal" font-weight="normal" text-decoration="none" x="512" y="610.5">+license: string</text></g></g><g transform="translate(-86,-38) scale(1,1)"><g><path fill="none" stroke="none"/><text fill="#000000" stroke="none" font-family="Arial" font-size="13px" font-style="normal" font-weight="normal" text-decoration="none" x="512" y="625.5">+name: string</text></g></g><g transform="translate(-86,-38) scale(1,1)"><g><path fill="none" stroke="none"/><text fill="#000000" stroke="none" font-family="Arial" font-size="13px" font-style="normal" font-weight="normal" text-decoration="none" x="512" y="640.5">+homepage: string</text></g></g><g transform="translate(-86,-38) scale(1,1)"><g><path fill="none" stroke="none"/><text fill="#000000" stroke="none" font-family="Arial" font-size="13px" font-style="normal" font-weight="normal" text-decoration="none" x="512" y="655.5">+dependencies: array</text></g></g><g transform="translate(-86,-38) scale(1,1)"><g><path fill="none" stroke="none"/><text fill="#000000" stroke="none" font-family="Arial" font-size="13px" font-style="normal" font-weight="normal" text-decoration="none" x="512" y="670.5">+devDependencies: array</text></g></g><g transform="translate(-86,-38) scale(1,1)"><g><path fill="none" stroke="none"/><text fill="#000000" stroke="none" font-family="Arial" font-size="13px" font-style="normal" font-weight="normal" text-decoration="none" x="512" y="685.5">+author: string</text></g></g><g transform="translate(-86,-38) scale(1,1)"><g><path fill="none" stroke="none"/><text fill="#000000" stroke="none" font-family="Arial" font-size="13px" font-style="normal" font-weight="normal" text-decoration="none" x="512" y="700.5">+version: array</text></g></g><g transform="translate(-86,-38) scale(1,1)"><g><path fill="none" stroke="none"/><text fill="#000000" stroke="none" font-family="Arial" font-size="13px" font-style="normal" font-weight="normal" text-decoration="none" x="512" y="715.5">+language: string</text></g></g><g transform="translate(-86,-38) scale(1,1)"><g><path fill="none" stroke="none"/><text fill="#000000" stroke="none" font-family="Arial" font-size="13px" font-style="normal" font-weight="normal" text-decoration="none" x="512" y="738.5">+&lt;&lt;create&gt;&gt;()</text></g></g><g transform="translate(-86,-38) scale(1,1)"><g><path fill="none" stroke="none"/><text fill="#000000" stroke="none" font-family="Arial" font-size="13px" font-style="normal" font-weight="normal" text-decoration="none" x="512" y="753.5">+consume(url: string, subdiv: string, ping: bool = false): stringbool</text></g></g><g transform="translate(-86,-38) scale(1,1)"><g><path fill="none" stroke="none"/><text fill="#000000" stroke="none" font-family="Arial" font-size="13px" font-style="normal" font-weight="normal" text-decoration="none" x="512" y="768.5">+consumeComposer()</text></g></g><g transform="translate(-86,-38) scale(1,1)"><g><path fill="none" stroke="none"/><text fill="#000000" stroke="none" font-family="Arial" font-size="13px" font-style="normal" font-weight="normal" text-decoration="none" x="512" y="783.5">+consumeNpm()</text></g></g><g transform="translate(-86,-38) scale(1,1)"><g><path fill="none" stroke="none"/><text fill="#000000" stroke="none" font-family="Arial" font-size="13px" font-style="normal" font-weight="normal" text-decoration="none" x="512" y="798.5">+consumePackage()</text></g></g><g transform="translate(-86,-38) scale(1,1)"><g><path fill="none" stroke="none"/><text fill="#000000" stroke="none" font-family="Arial" font-size="13px" font-style="normal" font-weight="normal" text-decoration="none" x="512" y="813.5">+consumePackagist()</text></g></g><g transform="translate(-86,-38) scale(1,1)"><g><path fill="none" stroke="none"/><text fill="#000000" stroke="none" font-family="Arial" font-size="13px" font-style="normal" font-weight="normal" text-decoration="none" x="512" y="828.5">+consume Travis()</text></g></g><g transform="translate(-86,-38) scale(1,1)"><g><path fill="none" stroke="none"/><text fill="#000000" stroke="none" font-family="Arial" font-size="13px" font-style="normal" font-weight="normal" text-decoration="none" x="512" y="843.5">+get()</text></g></g><g transform="translate(-86,-38) scale(1,1)"><g><path fill="none" stroke="none"/><text fill="#000000" stroke="none" font-family="Arial" font-size="13px" font-style="normal" font-weight="normal" text-decoration="none" x="512" y="858.5">+setAvailable()</text></g></g><g transform="translate(-86,-38) scale(1,1)"><g><path fill="none" stroke="none"/><text fill="#000000" stroke="none" font-family="Arial" font-size="13px" font-style="normal" font-weight="normal" text-decoration="none" x="512" y="873.5">+setPackage(vendor: string, repository: string)</text></g></g><g transform="translate(-86,-38) scale(1,1)"><rect fill="#C0C0C0" stroke="none" x="438" y="335" width="240.5625" height="112" opacity="0.2"/></g><g transform="translate(-86,-38) scale(1,1)"><rect fill="#ffffff" stroke="none" x="431" y="328" width="240.5625" height="112"/></g><g transform="translate(-86,-38) scale(1,1)"><path fill="none" stroke="#000000" d="M 431 328 L 671.5625 328 L 671.5625 440 L 431 440 L 431 328 Z Z" stroke-miterlimit="10"/></g><g transform="translate(-86,-38) scale(1,1)"><path fill="none" stroke="#000000" d="M 431 353 L 671.5625 353" stroke-miterlimit="10"/></g><g transform="translate(-86,-38) scale(1,1)"><path fill="none" stroke="#000000" d="M 431 376 L 671.5625 376" stroke-miterlimit="10"/></g><g transform="translate(-86,-38) scale(1,1)"><g><path fill="none" stroke="none"/><text fill="#000000" stroke="none" font-family="Arial" font-size="13px" font-style="normal" font-weight="bold" text-decoration="none" x="503.953125" y="347.5">Abstract Subject</text></g></g><g transform="translate(-86,-38) scale(1,1)"><g><path fill="none" stroke="none"/><text fill="#000000" stroke="none" font-family="Arial" font-size="13px" font-style="normal" font-weight="normal" text-decoration="none" x="436" y="370.5">#observer: Array</text></g></g><g transform="translate(-86,-38) scale(1,1)"><g><path fill="none" stroke="none"/><text fill="#000000" stroke="none" font-family="Arial" font-size="13px" font-style="normal" font-weight="normal" text-decoration="none" x="436" y="393.5">+Register(observer: OberverInterface)</text></g></g><g transform="translate(-86,-38) scale(1,1)"><g><path fill="none" stroke="none"/><text fill="#000000" stroke="none" font-family="Arial" font-size="13px" font-style="normal" font-weight="normal" text-decoration="none" x="436" y="408.5">+Unregister(observer: OberserInterface)</text></g></g><g transform="translate(-86,-38) scale(1,1)"><g><path fill="none" stroke="none"/><text fill="#000000" stroke="none" font-family="Arial" font-size="13px" font-style="normal" font-weight="normal" text-decoration="none" x="436" y="423.5">+Notify()</text></g></g><g transform="translate(-86,-38) scale(1,1)"><path fill="none" stroke="#000000" d="M 616 523 L 616 440" stroke-miterlimit="10"/></g><g transform="translate(-86,-38) scale(1,1)"><path fill="#FFFFFF" stroke="none" d="M 624.419035512032 460.3253497152483 L 616 440 L 607.580964487968 460.3253497152483"/></g><g transform="translate(-86,-38) scale(1,1)"><path fill="none" stroke="#000000" d="M 624.419035512032 460.3253497152483 L 616 440 L 607.580964487968 460.3253497152483 L 624.419035512032 460.3253497152483" stroke-miterlimit="10"/></g><g transform="translate(-86,-38) scale(1,1)"><path fill="none" stroke="#000000" d="M 304 429 L 304 456 L 568 456 L 568 523" stroke-miterlimit="10"/></g><g transform="translate(-86,-38) scale(1,1)"><path fill="#FFFFFF" stroke="none" d="M 563.790482243984 512.8373251423759 L 568 523 L 572.209517756016 512.8373251423759 L 568 501"/></g><g transform="translate(-86,-38) scale(1,1)"><path fill="none" stroke="#000000" d="M 563.790482243984 512.8373251423759 L 568 523 L 572.209517756016 512.8373251423759 L 568 501 L 563.790482243984 512.8373251423759" stroke-miterlimit="10"/></g><g transform="translate(-86,-38) scale(1,1)"><path fill="none" stroke="#000000" d="M 260 159.5 A 11.5 11.5 0 0 1 260 182.5" stroke-miterlimit="10"/></g><g transform="translate(-86,-38) scale(1,1)"><path fill="none" stroke="#000000" d="M 200 208 L 320.28076171875 208" stroke-miterlimit="10"/></g><g transform="translate(-86,-38) scale(1,1)"><g><path fill="none" stroke="none"/><text fill="#000000" stroke="none" font-family="Arial" font-size="13px" font-style="normal" font-weight="bold" text-decoration="none" x="208.47998046875" y="202.5">Observerinterface</text></g></g><g transform="translate(-86,-38) scale(1,1)"><g><path fill="none" stroke="none"/><text fill="#000000" stroke="none" font-family="Arial" font-size="13px" font-style="normal" font-weight="normal" text-decoration="none" x="205" y="225.5">+Update(subject)</text></g></g><g transform="translate(-86,-38) scale(1,1)"><path fill="none" stroke="#000000" d="M 554 174.5 A 11.5 11.5 0 0 1 554 151.5" stroke-miterlimit="10"/></g><g transform="translate(-86,-38) scale(1,1)"><path fill="none" stroke="#000000" d="M 488 200 L 621.63623046875 200" stroke-miterlimit="10"/></g><g transform="translate(-86,-38) scale(1,1)"><g><path fill="none" stroke="none"/><text fill="#000000" stroke="none" font-family="Arial" font-size="13px" font-style="normal" font-weight="bold" text-decoration="none" x="508.207275390625" y="194.5">Subjectinterface</text></g></g><g transform="translate(-86,-38) scale(1,1)"><g><path fill="none" stroke="none"/><text fill="#000000" stroke="none" font-family="Arial" font-size="13px" font-style="normal" font-weight="normal" text-decoration="none" x="493" y="217.5">+register(observer)</text></g></g><g transform="translate(-86,-38) scale(1,1)"><g><path fill="none" stroke="none"/><text fill="#000000" stroke="none" font-family="Arial" font-size="13px" font-style="normal" font-weight="normal" text-decoration="none" x="493" y="232.5">+unregister(obserser)</text></g></g><g transform="translate(-86,-38) scale(1,1)"><g><path fill="none" stroke="none"/><text fill="#000000" stroke="none" font-family="Arial" font-size="13px" font-style="normal" font-weight="normal" text-decoration="none" x="493" y="247.5">+notify()</text></g></g><g transform="translate(-86,-38) scale(1,1)"><path fill="none" stroke="#000000" d="M 712 523 L 712 296 L 554 296 L 554 253" stroke-miterlimit="10"/></g><g transform="translate(-86,-38) scale(1,1)"><path fill="#FFFFFF" stroke="none" d="M 562.419035512032 273.3253497152483 L 554 253 L 545.580964487968 273.3253497152483"/></g><g transform="translate(-86,-38) scale(1,1)"><path fill="none" stroke="#000000" d="M 562.419035512032 273.3253497152483 L 554 253 L 545.580964487968 273.3253497152483 L 562.419035512032 273.3253497152483" stroke-miterlimit="10"/></g><g transform="translate(-86,-38) scale(1,1)"><path fill="none" stroke="#000000" d="M 262 328 L 261 232" stroke-miterlimit="10"/></g><g transform="translate(-86,-38) scale(1,1)"><path fill="#ffffff" stroke="none" d="M 600 48 L 804 48 L 814 58 L 814 134 L 600 134 L 600 48"/></g><g transform="translate(-86,-38) scale(1,1)"><path fill="none" stroke="#000000" d="M 600 48 L 804 48 L 814 58 L 814 134 L 600 134 L 600 48 L 600 48" stroke-miterlimit="10"/></g><g transform="translate(-86,-38) scale(1,1)"><path fill="none" stroke="#000000" d="M 804 48 L 804 58 L 814 58 L 804 48" stroke-miterlimit="10"/></g><g transform="translate(-86,-38) scale(1,1)"><g><path fill="none" stroke="none"/><text fill="#000000" stroke="none" font-family="Arial" font-size="13px" font-style="normal" font-weight="normal" text-decoration="none" x="605" y="66">Notify</text></g></g><g transform="translate(-86,-38) scale(1,1)"><g><path fill="none" stroke="none"/><text fill="#000000" stroke="none" font-family="Arial" font-size="13px" font-style="normal" font-weight="normal" text-decoration="none" x="605" y="81">foreach(observer as observer) {</text></g></g><g transform="translate(-86,-38) scale(1,1)"><g><path fill="none" stroke="none"/><text fill="#000000" stroke="none" font-family="Arial" font-size="13px" font-style="normal" font-weight="normal" text-decoration="none" x="605" y="96">observer.update(this);}</text></g></g><g transform="translate(-86,-38) scale(1,1)"><path fill="none" stroke="#000000" d="M 645 136 L 623 152" stroke-miterlimit="10" stroke-dasharray="3"/></g><g transform="translate(-86,-38) scale(1,1)"><path fill="none" stroke="#000000" d="M 528 523 L 528 480 L 312 480 L 312 523" stroke-miterlimit="10"/></g><g transform="translate(-86,-38) scale(1,1)"><path fill="#000000" stroke="none" d="M 307.790482243984 512.8373251423759 L 312 523 L 316.209517756016 512.8373251423759 L 312 501"/></g><g transform="translate(-86,-38) scale(1,1)"><path fill="none" stroke="#000000" d="M 307.790482243984 512.8373251423759 L 312 523 L 316.209517756016 512.8373251423759 L 312 501 L 307.790482243984 512.8373251423759" stroke-miterlimit="10"/></g><g transform="translate(-86,-38) scale(1,1)"><path fill="none" stroke="#000000" d="M 264 430 L 264 522" stroke-miterlimit="10"/></g><g transform="translate(-86,-38) scale(1,1)"><path fill="#000000" stroke="none" d="M 259.790482243984 511.83732514237585 L 264 522 L 268.209517756016 511.83732514237585 L 264 500"/></g><g transform="translate(-86,-38) scale(1,1)"><path fill="none" stroke="#000000" d="M 259.790482243984 511.83732514237585 L 264 522 L 268.209517756016 511.83732514237585 L 264 500 L 259.790482243984 511.83732514237585" stroke-miterlimit="10"/></g><g transform="translate(-86,-38) scale(1,1)"><path fill="#C0C0C0" stroke="none" d="M 848.252197265625 178.5 C 848.252197265625 172.1487248 853.400922065625 167 859.752197265625 167 C 866.103472465625 167 871.252197265625 172.1487248 871.252197265625 178.5 C 871.252197265625 184.8512752 866.103472465625 190 859.752197265625 190 C 853.400922065625 190 848.252197265625 184.8512752 848.252197265625 178.5 Z" opacity="0.2"/></g><g transform="translate(-86,-38) scale(1,1)"><path fill="#ffffff" stroke="none" d="M 841.252197265625 171.5 C 841.252197265625 165.1487248 846.400922065625 160 852.752197265625 160 C 859.103472465625 160 864.252197265625 165.1487248 864.252197265625 171.5 C 864.252197265625 177.8512752 859.103472465625 183 852.752197265625 183 C 846.400922065625 183 841.252197265625 177.8512752 841.252197265625 171.5 Z"/></g><g transform="translate(-86,-38) scale(1,1)"><path fill="none" stroke="#000000" d="M 841.252197265625 171.5 C 841.252197265625 165.1487248 846.400922065625 160 852.752197265625 160 C 859.103472465625 160 864.252197265625 165.1487248 864.252197265625 171.5 C 864.252197265625 177.8512752 859.103472465625 183 852.752197265625 183 C 846.400922065625 183 841.252197265625 177.8512752 841.252197265625 171.5 Z" stroke-miterlimit="10"/></g><g transform="translate(-86,-38) scale(1,1)"><g><path fill="none" stroke="none"/><text fill="#000000" stroke="none" font-family="Arial" font-size="13px" font-style="normal" font-weight="bold" text-decoration="none" x="784.4609375" y="202.5">PackageModelInterface</text></g></g><g transform="translate(-86,-38) scale(1,1)"><path fill="none" stroke="#000000" d="M 845 208 L 845 523" stroke-miterlimit="10"/></g><g transform="translate(-86,-38) scale(1,1)"><path fill="none" stroke="#000000" d="M 488 171 L 271.640380859375 171" stroke-miterlimit="10"/></g><g transform="translate(-86,-38) scale(1,1)"><path fill="none" stroke="#000000" d="M 320 163 L 543.318115234375 163" stroke-miterlimit="10"/></g></g></svg>